/* XPM */
static char * peerstreamer_xpm[] = {
"111 56 3 1",
" 	c None",
".	c #9C1D1D",
"+	c #D35F5F",
"                              ...                   ...                        ++                    ++        ",
"     ........              .........             .........++++              +++++++++            +++++++++     ",
"    ...........          ............          ............+++++          ++++++++++++          ++++++++++++   ",
"   .............        ..............        ..............+++++        ++++++++++++++        ++++++++++++++  ",
"  ...............       ...............       ...............+++++      ++++++++++++++++      ++++++++++++++++ ",
" .................     .................     .................++++      ++++++++++++++++      ++++++++++++++++ ",
" .................     .................     .................+++++    ++++++++++++++++++    ++++++++++++++++++",
" .................    ..................    ..................+++++    ++++++++++++++++++    ++++++++++++++++++",
"...................   ...................   ..................+++++    ++++++++++++++++++    ++++++++++++++++++",
"...................   ...................   ..................+++++    ++++++++++++++++++    ++++++++++++++++++",
"...................   ...................   ..................+++++    ++++++++++++++++++    ++++++++++++++++++",
"...................   ..................    ..................+++++    ++++++++++++++++++    ++++++++++++++++++",
" .................     .................    ..................+++++    ++++++++++++++++++    ++++++++++++++++++",
" .................     .................     .................+++++     +++++++++++++++++    +++++++++++++++++ ",
" .................     ................      ................+++++      ++++++++++++++++      ++++++++++++++++ ",
"  ...............       ...............       ..............++++++       ++++++++++++++        ++++++++++++++  ",
"   .............         .............         .............+++++         ++++++++++++          ++++++++++++   ",
"    ...........           ..........            ..........+++++            ++++++++++            ++++++++++    ",
"      .......                .....                 .....++++++                ++++                  ++++       ",
"                 .......                ......                    +++++++                +++++                 ",
"               ...........            ..........                ++++++++++             ++++++++++              ",
"              .............         .............              +++++++++++++         +++++++++++++             ",
"             ...............        ..............            ++++++++++++++        +++++++++++++++            ",
"            ................       ................          ++++++++++++++++       ++++++++++++++++           ",
"            .................     .................          +++++++++++++++++     +++++++++++++++++           ",
"            .................     ..................        ++++++++++++++++++     +++++++++++++++++           ",
"           ...................    ..................        ++++++++++++++++++     ++++++++++++++++++          ",
"           ...................    ..................        ++++++++++++++++++    +++++++++++++++++++          ",
"           ...................    ..................        ++++++++++++++++++    +++++++++++++++++++          ",
"           ...................    ..................        ++++++++++++++++++    +++++++++++++++++++          ",
"            .................     ..................        ++++++++++++++++++     +++++++++++++++++           ",
"            .................     ..................        ++++++++++++++++++     +++++++++++++++++           ",
"            .................      ................          ++++++++++++++++      +++++++++++++++++           ",
"             ...............       ...............            +++++++++++++++       +++++++++++++++            ",
"             ..............         ..............            ++++++++++++++         +++++++++++++             ",
"               ...........           ............              ++++++++++++           +++++++++++              ",
"                .........             .........                  ++++++++              +++++++++               ",
"                              ...         ..                                  ++++         +                   ",
"                           .........                                       ++++++++++                          ",
"                         ............                                     ++++++++++++                         ",
"                        ..............                                   ++++++++++++++                        ",
"                       ................                                 ++++++++++++++++                       ",
"                       .................                               +++++++++++++++++                       ",
"                      ..................                               ++++++++++++++++++                      ",
"                      ..................                               ++++++++++++++++++                      ",
"                      ..................                               ++++++++++++++++++                      ",
"                      ..................                               ++++++++++++++++++                      ",
"                      ..................                               ++++++++++++++++++                      ",
"                      ..................                               ++++++++++++++++++                      ",
"                      ..................                               ++++++++++++++++++                      ",
"                       .................                               +++++++++++++++++                       ",
"                       ................                                 ++++++++++++++++                       ",
"                        ..............                                   ++++++++++++++                        ",
"                         ............                                     ++++++++++++                         ",
"                           .........                                       ++++++++++                          ",
"                             ....                                             ++++                             "};
